# xmcd
#
# Track frame offsets: 
#        150
#        13508
#        41259
#        70703
#        89863
#        112368
#        129497
#
# Disc length: 2380 seconds
#
# Revision: 0
# Processed by: cddbd v1.5.2PL0 Copyright (c) Steve Scherf et al.
# Submitted via: ExactAudioCopy v0.99pb4
#
DISCID=5d094a07
DTITLE=Ray Pittman - Motifaction
DYEAR=2007
DGENRE=Blues
TTITLE0=Motifaction
TTITLE1=I'll Take You There
TTITLE2=If Lovin' You Is Wrong
TTITLE3=I Feel It Comin'
TTITLE4=I'll Be Missing Her
TTITLE5=Orange Shoes
TTITLE6=Evil Ways
EXTD=
EXTT0=
EXTT1=
EXTT2=
EXTT3=
EXTT4=
EXTT5=
EXTT6=
PLAYORDER=
